<?xml version="1.0" encoding="utf-8"?>
<!-- Generator: Adobe Illustrator 18.1.0, SVG Export Plug-In . SVG Version: 6.00 Build 0)  -->
<svg version="1.1" id="Layer_1" xmlns="http://www.w3.org/2000/svg" xmlns:xlink="http://www.w3.org/1999/xlink" x="0px" y="0px"
	 viewBox="0 0 500 500" enable-background="new 0 0 500 500" xml:space="preserve">
<path fill="#010101" d="M494.1,211.6c-27.6-51.2-66-10.9-66-10.9s23.1-18.8,44.9,9.6c18.4,23.9,0,68.6-88.4,4.5
	C296.1,150.7,250,200.1,250,200.1s-46.1-49.4-134.5,14.8C27,278.9,8.7,234.3,27,210.4c21.8-28.4,44.9-9.6,44.9-9.6
	s-38.4-40.4-66,10.9s45.5,108.9,130.8,106.4s113.4-53.2,113.4-53.2s28.2,50.6,113.4,53.2C448.6,320.5,521.7,262.9,494.1,211.6z"/>
</svg>
